<?xml version="1.0" ?><svg id="Layer_1" style="enable-background:new 0 0 1024 1024;" version="1.1" viewBox="0 0 1024 1024" xml:space="preserve" xmlns="http://www.w3.org/2000/svg" xmlns:xlink="http://www.w3.org/1999/xlink"><path d="M916.5,341.1c-22.1-52.3-53.8-99.2-94.1-139.5c-40.3-40.3-87.3-72-139.5-94.1C628.8,84.6,571.3,73,512,73  s-116.8,11.6-170.9,34.5c-52.3,22.1-99.2,53.8-139.5,94.1c-40.3,40.3-72,87.3-94.1,139.5C84.6,395.3,73,452.7,73,512  s11.6,116.8,34.5,170.9c22.1,52.3,53.8,99.2,94.1,139.5s87.3,72,139.5,94.1C395.3,939.4,452.7,951,512,951s116.8-11.6,170.9-34.5  c52.3-22.1,99.2-53.8,139.5-94.1s72-87.3,94.1-139.5C939.4,628.8,951,571.3,951,512S939.4,395.3,916.5,341.1z M689,532H532v157h-40  V532H335v-40h157V335h40v157h157V532z" id="XMLID_344_"/><g id="XMLID_1_"/><g id="XMLID_2_"/><g id="XMLID_3_"/><g id="XMLID_4_"/><g id="XMLID_5_"/></svg>